<svg width="1440" height="594" viewBox="0 0 1440 594" fill="none" xmlns="http://www.w3.org/2000/svg">
<path d="M890.634 191.303H871.793V199.178H890.634V191.303Z" fill="#E0CCC5"/>
<path d="M876.734 188.215H874.418V193.928H876.734V188.215Z" fill="#E0CCC5"/>
<path d="M882.912 188.215H880.595V193.928H882.912V188.215Z" fill="#E0CCC5"/>
<path d="M888.78 188.215H886.464V193.928H888.78V188.215Z" fill="#E0CCC5"/>
<path d="M911.944 148.38H979.122V53.7319L911.944 53.7319V148.38Z" fill="#E0CCC5"/>
<path d="M912.872 145.601H979.277V124.602H912.872V145.601Z" fill="#D3BCB6"/>
<path d="M911.945 144.983H919.357V54.1949H911.945V144.983Z" fill="#D3BCB6"/>
<path d="M947.155 109.162H956.267V99.589C956.267 97.1185 954.259 95.1113 951.788 95.1113C949.317 95.1113 947.31 97.1185 947.31 99.589V109.162H947.155Z" fill="#453A3E"/>
<path d="M935.109 109.316H944.221V99.7433C944.221 97.2728 942.213 95.2656 939.742 95.2656C937.271 95.2656 935.264 97.2728 935.264 99.7433V109.316H935.109Z" fill="#453A3E"/>
<path d="M906.077 82.4502L984.991 82.4502V76.1197L906.077 76.1197V82.4502Z" fill="#E0CCC5"/>
<path d="M911.635 84.1489L979.122 84.1489V82.2961L911.635 82.2961V84.1489Z" fill="#C1A79F"/>
<path d="M979.122 95.7287L984.99 82.4502H979.122V95.7287Z" fill="#D3BCB6"/>
<path d="M912.1 95.7287L906.231 82.4502H912.1V95.7287Z" fill="#C1A79F"/>
<path d="M908.238 55.5845H982.366V38.1371L972.482 31.8067L946.074 0L919.357 31.9611L908.238 38.1371V55.5845Z" fill="#453A3E"/>
<path d="M912.099 76.2744L979.122 76.2744V55.739L912.099 55.739V76.2744Z" fill="#D3BCB6"/>
<path d="M940.206 76.2744H951.016V72.1056H940.206V76.2744Z" fill="#453A3E"/>
<path d="M963.525 76.2744H974.335V72.1056H963.525V76.2744Z" fill="#453A3E"/>
<path d="M916.732 76.1201H927.542V71.9513H916.732V76.1201Z" fill="#453A3E"/>
<path d="M933.256 112.559H958.737V108.853H933.256V112.559Z" fill="#D3BCB6"/>
<path d="M947.619 127.381L952.097 131.241L956.73 127.381V112.25H947.619V127.381Z" fill="#2059EA"/>
<path d="M945.766 112.713H958.893V112.095H945.766V112.713Z" fill="#453A3E"/>
<path d="M934.956 127.381L939.434 131.241L944.067 127.381V112.25H934.956V127.381Z" fill="#2059EA"/>
<path d="M933.102 112.713H946.229V112.095H933.102V112.713Z" fill="#453A3E"/>
<path d="M934.646 103.294H944.684V102.831H934.646V103.294Z" fill="#E0CCC5"/>
<path d="M946.692 103.294H956.73V102.831H946.692V103.294Z" fill="#E0CCC5"/>
<path d="M937.426 108.853H937.735V94.0305H937.426V108.853Z" fill="#E0CCC5"/>
<path d="M941.287 108.853H941.596V94.0305H941.287V108.853Z" fill="#E0CCC5"/>
<path d="M953.333 108.853H953.642V94.0305H953.333V108.853Z" fill="#E0CCC5"/>
<path d="M949.781 108.853H950.089V94.0305H949.781V108.853Z" fill="#E0CCC5"/>
<path d="M889.243 310.81H1001.98V145.909H889.243V310.81Z" fill="#E0CCC5"/>
<path d="M891.869 309.884H1001.67V198.252H891.869V309.884Z" fill="#D3BCB6"/>
<path d="M889.089 310.347H899.899V149.924H889.089V310.347Z" fill="#C1A79F"/>
<path d="M923.835 185.282H938.352V166.6H923.835V185.282Z" fill="#C1A79F"/>
<path d="M925.071 188.061H937.117V165.518H925.071V188.061Z" fill="#453A3E"/>
<path d="M930.785 186.054H931.249V167.217H930.785V186.054Z" fill="#E0CCC5"/>
<path d="M925.225 173.702H937.271V173.084H925.225V173.702Z" fill="#E0CCC5"/>
<path d="M925.225 180.341H937.271V179.723H925.225V180.341Z" fill="#E0CCC5"/>
<path d="M923.064 167.834H939.742V164.129H923.064V167.834Z" fill="#C1A79F"/>
<path d="M922.445 188.679H939.278V184.819H922.445V188.679Z" fill="#C1A79F"/>
<path d="M966.15 185.59H980.667V166.908H966.15V185.59Z" fill="#C1A79F"/>
<path d="M967.539 188.215H979.585V165.673H967.539V188.215Z" fill="#453A3E"/>
<path d="M973.254 186.362H973.718V167.525H973.254V186.362Z" fill="#E0CCC5"/>
<path d="M967.695 174.01H979.74V173.393H967.695V174.01Z" fill="#E0CCC5"/>
<path d="M967.539 180.649H979.585V180.032H967.539V180.649Z" fill="#E0CCC5"/>
<path d="M965.378 168.297H982.057V164.592H965.378V168.297Z" fill="#C1A79F"/>
<path d="M964.915 189.142H981.748V185.282H964.915V189.142Z" fill="#C1A79F"/>
<path d="M889.243 155.791H1001.82V150.233H889.243V155.791Z" fill="#C1A79F"/>
<path d="M996.265 145.755H1003.99V138.653L1002.13 136.954H998.272L996.265 138.653V145.755Z" fill="#E0CCC5"/>
<path d="M982.983 145.755H990.705V138.653L988.852 136.954H984.991L982.983 138.653V145.755Z" fill="#E0CCC5"/>
<path d="M969.547 145.755H977.269V138.653L975.261 136.954H971.401L969.547 138.653V145.755Z" fill="#E0CCC5"/>
<path d="M956.112 145.755H963.834V138.653L961.981 136.954H958.12L956.112 138.653V145.755Z" fill="#E0CCC5"/>
<path d="M914.107 145.755H921.829V138.653L919.975 136.954H915.96L914.107 138.653V145.755Z" fill="#E0CCC5"/>
<path d="M900.825 145.755H908.547V138.653L906.694 136.954H902.678L900.825 138.653V145.755Z" fill="#E0CCC5"/>
<path d="M887.236 145.755H894.957V138.653L893.104 136.954H889.243L887.236 138.653V145.755Z" fill="#E0CCC5"/>
<path d="M942.522 145.755H950.244V138.653L948.236 136.954H944.375L942.522 138.653V145.755Z" fill="#E0CCC5"/>
<path d="M929.241 145.755H936.808V138.653L934.955 136.954H931.094L929.241 138.653V145.755Z" fill="#E0CCC5"/>
<path d="M886.772 152.085L1004.45 152.085V145.137H886.772V152.085Z" fill="#E0CCC5"/>
<path d="M961.208 202.575H944.221V228.051H961.208V202.575Z" fill="#E0CCC5"/>
<path d="M944.221 228.205C944.221 228.205 948.082 239.94 951.479 240.712C951.479 240.712 951.633 240.712 951.788 240.712C955.34 240.712 961.208 228.205 961.208 228.205H944.221Z" fill="#C1A79F"/>
<path d="M984.064 251.366H990.087C991.196 251.366 992.095 250.467 992.095 249.359V248.278C992.095 247.169 991.196 246.27 990.087 246.27H984.064C982.955 246.27 982.057 247.169 982.057 248.278V249.359C982.057 250.467 982.955 251.366 984.064 251.366Z" fill="#E0CCC5"/>
<path d="M974.489 236.08H980.512C981.621 236.08 982.52 235.181 982.52 234.072V232.992C982.52 231.883 981.621 230.984 980.512 230.984H974.489C973.38 230.984 972.481 231.883 972.481 232.992V234.072C972.481 235.181 973.38 236.08 974.489 236.08Z" fill="#E0CCC5"/>
<path d="M938.044 252.755H944.067C945.175 252.755 946.074 251.856 946.074 250.748V249.667C946.074 248.558 945.175 247.66 944.067 247.66H938.044C936.935 247.66 936.036 248.558 936.036 249.667V250.748C936.036 251.856 936.935 252.755 938.044 252.755Z" fill="#E0CCC5"/>
<path d="M948.699 218.478H955.803V211.53C955.803 209.523 952.251 206.435 952.251 206.435C952.251 206.435 948.854 209.523 948.854 211.53V218.478H948.699Z" fill="#453A3E"/>
<path d="M951.942 218.632H952.56V206.28H951.942V218.632Z" fill="#E0CCC5"/>
<path d="M944.221 205.354L961.208 205.045V203.655H944.221V205.354Z" fill="#D3BCB6"/>
<path d="M944.221 202.729V228.205C944.221 228.205 948.082 239.94 951.479 240.712C949.163 239.631 945.92 229.132 945.611 228.205V202.883H944.066L944.221 202.729Z" fill="#A5877F"/>
<path d="M964.451 203.81L952.869 187.134L941.441 203.81L944.221 205.662V203.81L961.208 203.655V205.817L964.451 203.81Z" fill="#453A3E"/>
<path d="M959.51 228.205H961.209V203.655H959.51V228.205Z" fill="#C1A79F"/>
<path d="M1076.57 452.241L923.063 452.705V301.854H1043.98L1076.57 452.241Z" fill="#E0CCC5"/>
<path d="M923.99 344.624H1044.14V301.7H923.99V344.624Z" fill="#D3BCB6"/>
<path d="M1034.72 301.854L1045.68 452.241H1076.57L1043.98 301.854H1034.72Z" fill="#C1A79F"/>
<path d="M933.102 302.009L934.183 452.859L923.063 452.704V302.009H933.102Z" fill="#A5877F"/>
<path d="M1023.13 431.552H1036.11C1036.11 429.699 1035.33 427.846 1034.25 426.611C1033.48 425.839 1032.71 425.221 1031.63 424.912C1031.63 424.912 1031.47 424.912 1031.32 424.912C1030.7 424.758 1030.24 424.604 1029.62 424.604C1029 424.604 1028.39 424.603 1027.92 424.912C1027.92 424.912 1027.77 424.912 1027.61 424.912C1026.69 425.221 1025.76 425.839 1025.14 426.611C1023.91 427.846 1023.29 429.544 1023.29 431.552H1023.13Z" fill="#453A3E"/>
<path d="M1031.32 424.758V431.551H1031.63V424.912C1031.63 424.912 1031.47 424.912 1031.32 424.912V424.758Z" fill="#E0CCC5"/>
<path d="M1027.46 424.912V431.551H1027.77V424.758C1027.77 424.758 1027.61 424.758 1027.46 424.758V424.912Z" fill="#E0CCC5"/>
<path d="M985.608 431.088H998.581C998.581 429.235 997.809 427.383 996.728 426.147C995.955 425.375 995.183 424.758 994.102 424.449C994.102 424.449 993.948 424.449 993.793 424.449C993.176 424.295 992.712 424.14 992.095 424.14C991.477 424.14 990.859 424.14 990.396 424.449C990.396 424.449 990.241 424.449 990.087 424.449C989.16 424.758 988.234 425.375 987.616 426.147C986.381 427.383 985.763 429.081 985.763 431.088H985.608Z" fill="#453A3E"/>
<path d="M993.794 424.294V431.088H994.103V424.449C994.103 424.449 993.948 424.449 993.794 424.449V424.294Z" fill="#E0CCC5"/>
<path d="M989.933 424.449V431.088H990.241V424.294C990.241 424.294 990.087 424.294 989.933 424.294V424.449Z" fill="#E0CCC5"/>
<path d="M946.691 431.552H959.664C959.664 429.699 958.891 427.846 957.81 426.611C957.038 425.839 956.266 425.221 955.185 424.912C955.185 424.912 955.031 424.912 954.876 424.912C954.259 424.758 953.795 424.604 953.178 424.604C952.56 424.604 951.942 424.603 951.479 424.912C951.479 424.912 951.324 424.912 951.17 424.912C950.243 425.221 949.317 425.839 948.699 426.611C947.464 427.846 946.846 429.544 946.846 431.552H946.691Z" fill="#453A3E"/>
<path d="M954.876 424.758V431.551H955.185V424.912C955.185 424.912 955.03 424.912 954.876 424.912V424.758Z" fill="#E0CCC5"/>
<path d="M951.17 424.912V431.551H951.479V424.758C951.479 424.758 951.324 424.758 951.17 424.758V424.912Z" fill="#E0CCC5"/>
<path d="M931.094 349.256H1041.05V343.234H931.094V349.256Z" fill="#E0CCC5"/>
<path d="M933.41 350.954H1038.58V349.256H933.41V350.954Z" fill="#C1A79F"/>
<path d="M1018.97 315.287H1023.6H1028.85V307.104H1018.97V315.287Z" fill="#E0CCC5"/>
<path d="M1027 320.383H1020.51V312.972C1020.51 311.273 1021.9 310.038 1023.44 310.038H1023.91C1025.61 310.038 1026.84 311.428 1026.84 312.972V320.383H1027Z" fill="#453A3E"/>
<path d="M1000.12 315.287H1004.91H1010.01V306.95H1000.12V315.287Z" fill="#E0CCC5"/>
<path d="M1008.46 320.383H1001.98V312.972C1001.98 311.273 1003.37 310.038 1004.91 310.038H1005.38C1007.07 310.038 1008.31 311.428 1008.31 312.972V320.383H1008.46Z" fill="#453A3E"/>
<path d="M980.976 315.287H985.763H990.859V307.104H980.976V315.287Z" fill="#E0CCC5"/>
<path d="M989.16 320.383H982.674V312.972C982.674 311.273 984.064 310.038 985.608 310.038H986.072C987.77 310.038 989.006 311.428 989.006 312.972V320.383H989.16Z" fill="#453A3E"/>
<path d="M960.59 315.287H965.223H970.474V307.104H960.59V315.287Z" fill="#E0CCC5"/>
<path d="M968.775 320.383H962.289V312.972C962.289 311.273 963.679 310.038 965.223 310.038H965.687C967.386 310.038 968.621 311.428 968.621 312.972V320.383H968.775Z" fill="#453A3E"/>
<path d="M940.205 315.287H944.992H950.089V307.104H940.205V315.287Z" fill="#E0CCC5"/>
<path d="M948.391 320.383H941.904V312.972C941.904 311.273 943.294 310.038 944.839 310.038H945.302C947.001 310.038 948.236 311.428 948.236 312.972V320.383H948.391Z" fill="#453A3E"/>
<path d="M922.909 304.788H1044.6L1043.98 301.854H922.909V304.788Z" fill="#A5877F"/>
<path d="M911.635 301.546H1052.94V276.533H911.635V301.546Z" fill="#E0CCC5"/>
<path d="M911.635 277.459H919.975V268.658L917.813 266.651H913.643L911.635 268.658V277.459Z" fill="#E0CCC5"/>
<path d="M1044.45 277.613H1052.79V268.812L1050.78 266.805H1046.45L1044.45 268.812V277.613Z" fill="#E0CCC5"/>
<path d="M1030.08 277.613H1038.42V268.812L1036.26 266.805H1032.09L1030.08 268.812V277.613Z" fill="#E0CCC5"/>
<path d="M1015.41 277.613H1023.75V268.812L1021.75 266.805H1017.42L1015.41 268.812V277.613Z" fill="#E0CCC5"/>
<path d="M1001.05 277.613H1009.39V268.812L1007.23 266.805H1003.06L1001.05 268.812V277.613Z" fill="#E0CCC5"/>
<path d="M955.494 277.613H963.833V268.812L961.826 266.805H957.656L955.494 268.812V277.613Z" fill="#E0CCC5"/>
<path d="M941.132 277.613H949.472V268.812L947.464 266.805H943.14L941.132 268.812V277.613Z" fill="#E0CCC5"/>
<path d="M926.461 277.613H934.8V268.812L932.793 266.805H928.623L926.461 268.812V277.613Z" fill="#E0CCC5"/>
<path d="M986.227 277.613H994.566V268.812L992.558 266.805H988.234L986.227 268.812V277.613Z" fill="#E0CCC5"/>
<path d="M971.864 277.613H980.204V268.812L978.042 266.805H973.872L971.864 268.812V277.613Z" fill="#E0CCC5"/>
<path d="M954.414 214.309H963.989V212.302H954.414V214.309Z" fill="#C1A79F"/>
<path d="M383.016 378.746C382.089 379.055 365.41 386.621 365.102 387.393C364.947 388.165 336.377 398.664 335.76 398.973C335.142 399.282 331.59 428.772 331.59 428.772C331.59 428.772 352.284 414.722 351.975 413.178C351.82 411.634 365.565 390.172 365.565 390.172L379.927 389.709L382.861 378.592L383.016 378.746Z" fill="#39847D"/>
<path d="M379.927 389.863C379.927 389.863 374.831 444.83 372.669 452.859V453.168C372.669 453.631 372.36 453.785 372.36 453.785C370.661 453.785 341.782 454.403 341.782 454.403L325.876 453.168H324.177V440.97C324.177 440.661 324.332 440.353 324.486 440.044C326.339 434.022 328.501 428 328.656 427.383C328.965 427.383 330.2 426.92 331.744 426.302C333.752 425.53 336.377 424.604 339.157 423.523C345.798 421.052 353.21 417.964 354.909 416.729C355.064 416.575 355.218 416.42 355.218 416.42C355.218 416.111 355.681 415.339 356.299 414.104V413.795C359.388 407.619 366.646 392.797 367.881 390.481C367.881 390.326 367.881 390.172 367.881 390.172H379.773L379.927 389.863Z" fill="#533C46"/>
<path d="M574.665 188.524H555.825V196.398H574.665V188.524Z" fill="#E0CCC5"/>
<path d="M536.521 54.1948H469.343V148.843H536.521V54.1948Z" fill="#E0CCC5"/>
<path d="M535.595 125.065H469.189V146.064H535.595V125.065Z" fill="#D3BCB6"/>
<path d="M536.521 54.5034H529.108V145.291H536.521V54.5034Z" fill="#D3BCB6"/>
<path d="M558.45 144.674H445.715V309.574H558.45V144.674Z" fill="#E0CCC5"/>
<path d="M826.389 200.722H611.266V292.436H826.389V200.722Z" fill="#E0CCC5"/>
<path d="M831.795 253.373H619.451V337.521H831.795V253.373Z" fill="#D3BCB6"/>
<path d="M629.026 160.732H572.812V323.162H629.026V160.732Z" fill="#C1A79F"/>
<path d="M634.585 163.666L629.489 168.143H573.121L567.407 163.048L600.919 120.279L634.585 163.666Z" fill="#453A3E"/>
<path d="M874.109 151.776H817.896V314.207H874.109V151.776Z" fill="#C1A79F"/>
<path d="M366.646 452.705L525.711 453.323V296.914H400.467L366.646 452.705Z" fill="#E0CCC5"/>
<path d="M1118.42 453.168H324.332V507.672H1118.42V453.168Z" fill="#3C87B5"/>
<path d="M857.431 291.046H593.815V434.176H857.431V291.046Z" fill="#E0CCC5"/>
<path d="M862.681 377.203H589.491V434.022H862.681V377.203Z" fill="#C1A79F"/>
<path d="M1440 453H0.000488281V615H1440V453Z" fill="#326984"/>
<path d="M1440 504H0.000488281V594H1440V504Z" fill="#533C46"/>
<path d="M776.045 433.096H683.077V371.49C683.077 356.049 695.586 343.543 711.029 343.543H748.247C763.69 343.543 776.199 356.049 776.199 371.49V433.096H776.045Z" fill="#C1A79F"/>
<path d="M771.875 371.026V433.096H687.092V371.026C687.092 366.857 688.173 362.997 689.872 359.601C690.026 359.292 690.181 358.829 690.49 358.52C691.262 357.285 692.189 356.049 693.115 354.969C693.424 354.66 693.733 354.197 694.042 353.888C697.13 350.8 701.146 348.793 705.624 348.021C705.933 348.021 706.242 348.021 706.551 348.021C707.168 348.021 707.786 348.021 708.404 348.021H750.409C751.954 348.021 753.344 348.175 754.733 348.484C755.042 348.484 755.351 348.638 755.66 348.793C759.83 350.028 763.536 352.498 766.316 355.895C766.625 356.358 766.934 356.667 767.242 357.13C767.551 357.593 768.015 358.211 768.323 358.674C768.478 358.983 768.787 359.446 768.941 359.755C770.794 363.152 771.721 367.012 771.721 371.181L771.875 371.026Z" fill="#453A3E"/>
<path d="M730.333 348.021V410.399C730.333 410.708 730.178 410.862 729.87 410.862C729.561 410.862 729.406 410.554 729.406 410.399V348.021H730.333Z" fill="#E0CCC5"/>
<path d="M743.305 348.021V410.399C743.305 410.708 743.151 410.862 742.842 410.862C742.533 410.862 742.378 410.554 742.378 410.399V348.021H743.305Z" fill="#E0CCC5"/>
<path d="M769.095 359.601H689.872C690.026 359.293 690.18 358.829 690.489 358.521H768.477C768.632 358.829 768.941 359.293 769.095 359.601Z" fill="#E0CCC5"/>
<path d="M771.875 372.571H687.092V373.652H771.875V372.571Z" fill="#E0CCC5"/>
<path d="M773.728 386.622C773.728 386.93 773.573 387.085 773.264 387.085H771.875V386.004H773.264C773.573 386.004 773.728 386.313 773.728 386.467V386.622Z" fill="#E0CCC5"/>
<path d="M771.875 386.158H687.092V387.239H771.875V386.158Z" fill="#E0CCC5"/>
<path d="M773.728 399.282C773.728 399.591 773.573 399.745 773.264 399.745H771.875V398.665H773.264C773.573 398.665 773.728 398.973 773.728 399.128V399.282Z" fill="#E0CCC5"/>
<path d="M771.875 398.819H687.092V399.9H771.875V398.819Z" fill="#E0CCC5"/>
<path d="M755.814 348.793V410.554C755.814 410.862 755.659 411.017 755.351 411.017C755.042 411.017 754.887 410.708 754.887 410.554V348.639C755.196 348.639 755.505 348.793 755.814 348.947V348.793Z" fill="#E0CCC5"/>
<path d="M767.396 357.131V410.554C767.396 410.862 767.242 411.017 766.933 411.017C766.624 411.017 766.47 410.708 766.47 410.554V355.896C766.779 356.359 767.087 356.667 767.396 357.131Z" fill="#E0CCC5"/>
<path d="M694.041 354.043V410.245C694.041 410.553 693.886 410.708 693.578 410.708C693.269 410.708 693.114 410.553 693.114 410.245V354.969C693.423 354.66 693.732 354.197 694.041 353.888V354.043Z" fill="#E0CCC5"/>
<path d="M706.55 348.175V410.399C706.55 410.708 706.396 410.862 706.087 410.862C705.778 410.862 705.624 410.708 705.624 410.399V348.33C705.932 348.33 706.241 348.33 706.55 348.33V348.175Z" fill="#E0CCC5"/>
<path d="M718.133 348.021V410.245C718.133 410.554 717.978 410.708 717.669 410.708C717.36 410.708 717.206 410.554 717.206 410.245V348.021H718.133Z" fill="#E0CCC5"/>
<path d="M613.582 370.254H599.22V432.941H613.582V370.254Z" fill="#C1A79F"/>
<path d="M644.16 370.254H630.106V432.941H644.16V370.254Z" fill="#C1A79F"/>
<path d="M673.811 370.254H659.758V432.941H673.811V370.254Z" fill="#C1A79F"/>
<path d="M797.047 371.026H782.994V433.713H797.047V371.026Z" fill="#C1A79F"/>
<path d="M822.992 371.026H808.939V433.713H822.992V371.026Z" fill="#C1A79F"/>
<path d="M852.643 371.026H838.59V433.713H852.643V371.026Z" fill="#C1A79F"/>
<path d="M862.99 438.963H583.005V453.013H862.99V438.963Z" fill="#A5877F"/>
<path d="M583.005 438.963H873.028L862.681 434.022H593.661L583.005 438.963Z" fill="#E0CCC5"/>
<path d="M777.743 438.809L780.214 445.911L785.156 498.253L784.693 502.885L675.664 503.348L675.355 498.099L679.525 445.757L681.378 438.654L777.743 438.809Z" fill="#C1A79F"/>
<path d="M782.531 495.474H677.827L681.379 438.654L777.744 438.809L782.531 495.474Z" fill="#E0CCC5"/>
<path d="M779.134 446.22H680.761V447.301H779.134V446.22Z" fill="#C1A79F"/>
<path d="M779.597 455.947H680.143V457.028H779.597V455.947Z" fill="#C1A79F"/>
<path d="M780.214 466.138H678.907V467.219H780.214V466.138Z" fill="#C1A79F"/>
<path d="M782.377 475.71H678.907V476.791H782.377V475.71Z" fill="#C1A79F"/>
<path d="M782.376 485.592H678.135V486.673H782.376V485.592Z" fill="#C1A79F"/>
<path d="M680.452 395.576C680.452 397.892 680.297 400.208 680.143 402.524C680.143 403.76 681.224 404.84 682.46 404.84C683.695 404.84 684.776 403.76 684.776 402.524C684.776 400.208 684.93 397.892 685.085 395.576C685.085 394.341 684.004 393.26 682.768 393.26C681.533 393.26 680.452 394.341 680.452 395.576Z" fill="#453A3E"/>
<path d="M679.834 405.612C679.834 407.62 679.834 409.627 679.834 411.48C679.834 412.715 680.915 413.796 682.15 413.796C683.386 413.796 684.467 412.715 684.467 411.48C684.467 409.472 684.467 407.465 684.467 405.612C684.467 404.377 683.386 403.296 682.15 403.296C680.915 403.296 679.834 404.377 679.834 405.612Z" fill="#453A3E"/>
<path d="M679.525 424.604C679.525 426.611 679.216 428.618 679.216 430.471C679.216 431.089 679.525 431.706 679.834 432.169C680.297 432.633 680.915 432.941 681.533 432.787C682.923 432.787 683.849 431.706 683.849 430.471C683.849 428.464 684.158 426.457 684.158 424.604C684.158 423.986 683.849 423.369 683.54 422.905C683.077 422.442 682.459 422.133 681.842 422.288C680.452 422.288 679.525 423.369 679.525 424.604Z" fill="#453A3E"/>
<path d="M680.143 443.749C680.143 445.756 680.143 447.764 680.143 449.616C680.143 450.852 681.224 451.932 682.46 451.932C683.695 451.932 684.776 450.852 684.776 449.616C684.776 447.609 684.776 445.602 684.776 443.749C684.776 442.514 683.695 441.433 682.46 441.433C681.224 441.433 680.143 442.514 680.143 443.749Z" fill="#453A3E"/>
<path d="M680.297 453.477C680.297 455.484 680.297 457.491 680.297 459.344C680.297 460.579 681.378 461.66 682.613 461.66C683.849 461.66 684.93 460.579 684.93 459.344C684.93 457.337 684.93 455.329 684.93 453.477C684.93 452.241 683.849 451.161 682.613 451.161C681.378 451.161 680.297 452.241 680.297 453.477Z" fill="#453A3E"/>
<path d="M680.606 463.204C680.606 465.211 680.606 467.219 680.606 469.071C680.606 470.307 681.687 471.387 682.922 471.387C684.158 471.387 685.239 470.307 685.239 469.071C685.239 467.064 685.239 465.057 685.239 463.204C685.239 461.969 684.158 460.888 682.922 460.888C681.687 460.888 680.606 461.969 680.606 463.204Z" fill="#453A3E"/>
<path d="M679.679 415.185C679.679 417.192 679.679 419.2 679.679 421.052C679.679 422.288 680.76 423.368 681.996 423.368C683.231 423.368 684.312 422.288 684.312 421.052C684.312 419.045 684.312 417.038 684.312 415.185C684.312 413.95 683.231 412.869 681.996 412.869C680.76 412.869 679.679 413.95 679.679 415.185Z" fill="#453A3E"/>
<path d="M679.834 434.022C679.834 436.029 679.834 438.036 679.834 439.889C679.834 441.125 680.915 442.205 682.15 442.205C683.386 442.205 684.467 441.125 684.467 439.889C684.467 437.882 684.467 435.875 684.467 434.022C684.467 432.787 683.386 431.706 682.15 431.706C680.915 431.706 679.834 432.787 679.834 434.022Z" fill="#453A3E"/>
<path d="M773.42 394.804C773.42 397.12 773.265 399.436 773.111 401.752C773.111 402.988 774.192 404.068 775.427 404.068C776.663 404.068 777.744 402.988 777.744 401.752C777.744 399.436 777.898 397.12 778.053 394.804C778.053 393.569 776.972 392.488 775.736 392.488C774.501 392.488 773.42 393.569 773.42 394.804Z" fill="#453A3E"/>
<path d="M772.802 404.686C772.802 406.693 772.802 408.7 772.802 410.553C772.802 411.788 773.883 412.869 775.119 412.869C776.354 412.869 777.435 411.788 777.435 410.553C777.435 408.546 777.435 406.538 777.435 404.686C777.435 403.45 776.354 402.37 775.119 402.37C773.883 402.37 772.802 403.45 772.802 404.686Z" fill="#453A3E"/>
<path d="M772.493 423.832C772.493 425.839 772.184 427.846 772.184 429.699C772.184 430.317 772.493 430.934 772.802 431.397C773.265 431.861 773.883 432.169 774.501 432.015C775.89 432.015 776.817 430.934 776.817 429.699C776.817 427.692 777.126 425.685 777.126 423.832C777.126 423.214 776.817 422.597 776.508 422.133C776.045 421.67 775.427 421.361 774.809 421.516C773.42 421.516 772.493 422.597 772.493 423.832Z" fill="#453A3E"/>
<path d="M773.111 442.977C773.111 444.984 773.111 446.992 773.111 448.844C773.111 450.08 774.192 451.16 775.427 451.16C776.663 451.16 777.744 450.08 777.744 448.844C777.744 446.837 777.744 444.83 777.744 442.977C777.744 441.742 776.663 440.661 775.427 440.661C774.192 440.661 773.111 441.742 773.111 442.977Z" fill="#453A3E"/>
<path d="M773.265 452.55C773.265 454.558 773.265 456.565 773.265 458.418C773.265 459.653 774.346 460.734 775.582 460.734C776.817 460.734 777.898 459.653 777.898 458.418C777.898 456.41 777.898 454.403 777.898 452.55C777.898 451.315 776.817 450.234 775.582 450.234C774.346 450.234 773.265 451.315 773.265 452.55Z" fill="#453A3E"/>
<path d="M773.42 462.432C773.42 464.439 773.42 466.447 773.42 468.299C773.42 469.535 774.501 470.615 775.736 470.615C776.972 470.615 778.053 469.535 778.053 468.299C778.053 466.292 778.053 464.285 778.053 462.432C778.053 461.197 776.972 460.116 775.736 460.116C774.501 460.116 773.42 461.197 773.42 462.432Z" fill="#453A3E"/>
<path d="M772.647 414.259C772.647 416.266 772.647 418.273 772.647 420.126C772.647 421.361 773.728 422.442 774.964 422.442C776.199 422.442 777.28 421.361 777.28 420.126C777.28 418.119 777.28 416.112 777.28 414.259C777.28 413.024 776.199 411.943 774.964 411.943C773.728 411.943 772.647 413.024 772.647 414.259Z" fill="#453A3E"/>
<path d="M772.802 433.25C772.802 435.257 772.802 437.265 772.802 439.117C772.802 440.353 773.883 441.433 775.119 441.433C776.354 441.433 777.435 440.353 777.435 439.117C777.435 437.11 777.435 435.103 777.435 433.25C777.435 432.015 776.354 430.934 775.119 430.934C773.883 430.934 772.802 432.015 772.802 433.25Z" fill="#453A3E"/>
<path d="M643.079 220.331H636.284V230.367H643.079V220.331Z" fill="#453A3E"/>
<path d="M660.375 220.331H653.58V230.367H660.375V220.331Z" fill="#453A3E"/>
<path d="M696.513 220.176H689.718V230.212H696.513V220.176Z" fill="#453A3E"/>
<path d="M713.809 220.176H707.014V230.212H713.809V220.176Z" fill="#453A3E"/>
<path d="M742.07 220.176H735.275V230.212H742.07V220.176Z" fill="#453A3E"/>
<path d="M759.366 220.176H752.571V230.212H759.366V220.176Z" fill="#453A3E"/>
<path d="M793.496 220.176H786.701V230.212H793.496V220.176Z" fill="#453A3E"/>
<path d="M810.946 220.176H804.151V230.212H810.946V220.176Z" fill="#453A3E"/>
<path d="M838.436 313.126H831.641V337.83H838.436V313.126Z" fill="#453A3E"/>
<path d="M841.524 318.53H828.243L831.64 308.957C833.03 304.943 836.428 304.943 837.972 308.803L841.678 318.53H841.524Z" fill="#C1A79F"/>
<path d="M792.724 315.75H785.929V340.455H792.724V315.75Z" fill="#453A3E"/>
<path d="M795.812 321.155H782.531L785.928 311.582C787.318 307.567 790.716 307.567 792.26 311.427L795.966 321.155H795.812Z" fill="#C1A79F"/>
<path d="M555.825 197.17H446.024V276.533H555.825V197.17Z" fill="#D3BCB6"/>
<path d="M558.604 148.843H547.794V259.085H558.604V148.843Z" fill="#C1A79F"/>
<path d="M661.92 310.81H655.125V335.514H661.92V310.81Z" fill="#453A3E"/>
<path d="M664.854 316.214H651.573L654.97 306.641C656.36 302.627 659.758 302.627 661.302 306.487L665.008 316.214H664.854Z" fill="#C1A79F"/>
<path d="M622.848 310.81H616.053V335.514H622.848V310.81Z" fill="#453A3E"/>
<path d="M625.937 316.214H612.656L616.053 306.641C617.443 302.627 620.841 302.627 622.385 306.487L626.091 316.214H625.937Z" fill="#C1A79F"/>
<path d="M785.31 265.879H773.728V280.701H785.31V265.879Z" fill="#E0CCC5"/>
<path d="M802.916 265.879H791.333V280.701H802.916V265.879Z" fill="#E0CCC5"/>
<path d="M855.731 265.879H844.149V280.701H855.731V265.879Z" fill="#E0CCC5"/>
<path d="M838.126 265.879H826.543V280.701H838.126V265.879Z" fill="#E0CCC5"/>
<path d="M820.521 265.879H808.938V280.701H820.521V265.879Z" fill="#E0CCC5"/>
<path d="M695.277 265.879H683.695V280.701H695.277V265.879Z" fill="#E0CCC5"/>
<path d="M712.883 265.879H701.301V280.701H712.883V265.879Z" fill="#E0CCC5"/>
<path d="M765.699 265.879H754.116V280.701H765.699V265.879Z" fill="#E0CCC5"/>
<path d="M748.093 265.879H736.511V280.701H748.093V265.879Z" fill="#E0CCC5"/>
<path d="M730.488 265.879H718.905V280.701H730.488V265.879Z" fill="#E0CCC5"/>
<path d="M605.706 265.879H594.124V280.701H605.706V265.879Z" fill="#E0CCC5"/>
<path d="M623.311 265.879H611.729V280.701H623.311V265.879Z" fill="#E0CCC5"/>
<path d="M676.127 265.879H664.545V280.701H676.127V265.879Z" fill="#E0CCC5"/>
<path d="M658.522 265.879H646.939V280.701H658.522V265.879Z" fill="#E0CCC5"/>
<path d="M640.917 265.879H629.334V280.701H640.917V265.879Z" fill="#E0CCC5"/>
<path d="M594.124 452.396L525.402 452.705L526.02 234.072H594.124V452.396Z" fill="#E0CCC5"/>
<path d="M525.711 453.322L589.645 452.396V389.863L525.556 390.172L525.711 453.322Z" fill="#D3BCB6"/>
<path d="M601.382 226.043H519.225V251.983H601.382V226.043Z" fill="#E0CCC5"/>
<path d="M526.174 271.438H388.884V297.377H526.174V271.438Z" fill="#E0CCC5"/>
<path d="M530.962 215.699H519.379V230.521H530.962V215.699Z" fill="#E0CCC5"/>
<path d="M548.567 215.699H536.984V230.521H548.567V215.699Z" fill="#E0CCC5"/>
<path d="M601.383 215.699H589.8V230.521H601.383V215.699Z" fill="#E0CCC5"/>
<path d="M583.778 215.699H572.195V230.521H583.778V215.699Z" fill="#E0CCC5"/>
<path d="M566.173 215.699H554.59V230.521H566.173V215.699Z" fill="#E0CCC5"/>
<path d="M534.822 272.518H526.174V263.409L528.336 261.401L532.66 261.247L534.822 263.409V272.518Z" fill="#E0CCC5"/>
<path d="M397.687 272.518H389.039V263.409L391.201 261.401L395.525 261.247L397.687 263.409V272.518Z" fill="#E0CCC5"/>
<path d="M412.667 272.518H404.019V263.409L406.026 261.401L410.505 261.247L412.667 263.409V272.518Z" fill="#E0CCC5"/>
<path d="M427.801 272.518H419.152V263.409L421.314 261.401L425.638 261.247L427.801 263.409V272.518Z" fill="#E0CCC5"/>
<path d="M442.627 272.518H433.979V263.409L436.141 261.401L440.619 261.247L442.627 263.409V272.518Z" fill="#E0CCC5"/>
<path d="M489.728 272.518H481.08V263.409L483.242 261.401L487.72 261.247L489.728 263.409V272.518Z" fill="#E0CCC5"/>
<path d="M504.708 272.518H496.06V263.409L498.222 261.401L502.546 261.247L504.708 263.409V272.518Z" fill="#E0CCC5"/>
<path d="M519.843 272.518H511.194V263.409L513.356 261.401L517.68 261.247L519.843 263.409V272.518Z" fill="#E0CCC5"/>
<path d="M458.069 272.518H449.421V263.409L451.429 261.401L455.907 261.247L458.069 263.409V272.518Z" fill="#E0CCC5"/>
<path d="M472.895 272.518H464.247V263.409L466.409 261.401L470.733 261.247L472.895 263.409V272.518Z" fill="#E0CCC5"/>
<path opacity="0.6" d="M535.594 452.55L525.402 453.014L526.174 251.829H535.594V452.55Z" fill="#C1A79F"/>
<path d="M864.843 251.983H855.423V452.859H864.843V251.983Z" fill="#D3BCB6"/>
<path d="M501.311 109.625H492.199V100.052C492.199 97.5814 494.207 95.5742 496.678 95.5742C499.149 95.5742 501.156 97.5814 501.156 100.052V109.625H501.311Z" fill="#453A3E"/>
<path d="M513.511 109.78H504.399V100.207C504.399 97.7362 506.407 95.729 508.878 95.729C511.349 95.729 513.356 97.7362 513.356 100.207V109.78H513.511Z" fill="#453A3E"/>
<path d="M594.279 207.67H587.792V183.738C587.792 181.885 589.182 180.495 591.036 180.495C592.889 180.495 594.279 181.885 594.279 183.738V207.67Z" fill="#453A3E"/>
<path d="M610.185 207.515H603.699V183.583C603.699 181.73 605.089 180.341 606.942 180.341C608.795 180.341 610.185 181.73 610.185 183.583V207.515Z" fill="#453A3E"/>
<path d="M629.18 167.834H622.385V283.789H629.18V167.834Z" fill="#A5877F"/>
<path d="M424.867 166.445V205.817C424.867 207.824 425.022 209.831 425.33 211.839C426.257 218.015 428.728 223.882 432.589 228.823C433.052 229.44 433.515 230.058 433.979 230.521C434.442 231.139 434.905 231.602 435.369 232.22C436.295 233.3 437.376 234.381 438.457 235.462C440.619 237.778 442.936 239.94 445.561 241.947V234.536L445.715 211.684L446.024 166.136H424.867V166.445Z" fill="#D3BCB6"/>
<path d="M429.809 160.423H424.867V170.613H429.809V160.423Z" fill="#E0CCC5"/>
<path d="M437.994 160.423H433.052V170.613H437.994V160.423Z" fill="#E0CCC5"/>
<path d="M446.025 160.423H441.083V170.613H446.025V160.423Z" fill="#E0CCC5"/>
<path d="M432.744 186.826H437.531V178.488C437.531 177.098 436.45 176.172 435.215 176.172C433.825 176.172 432.898 177.253 432.898 178.488V186.826H432.744Z" fill="#453A3E"/>
<path d="M432.744 203.964H437.531V195.627C437.531 194.237 436.45 193.311 435.215 193.311C433.825 193.311 432.898 194.391 432.898 195.627V203.964H432.744Z" fill="#453A3E"/>
<path d="M425.176 211.993C426.103 218.169 428.728 224.036 432.589 228.977C433.052 229.595 433.516 230.213 434.133 230.83C434.597 231.448 435.06 231.911 435.678 232.529C436.604 233.609 437.685 234.69 438.766 235.771C440.928 237.933 443.245 240.094 445.87 242.256V234.845L446.179 211.993H425.485H425.176Z" fill="#C1A79F"/>
<path d="M423.014 171.231H445.87V167.062H423.014V171.231Z" fill="#E0CCC5"/>
<path d="M424.712 173.238H445.87V171.849H424.712V173.238Z" fill="#C1A79F"/>
<path d="M445.87 171.849H444.326V212.765H445.87V171.849Z" fill="#C1A79F"/>
<path d="M856.04 290.892H593.661V294.907H856.04V290.892Z" fill="#C1A79F"/>
<path d="M856.04 280.547H593.661V291.201H856.04V280.547Z" fill="#E0CCC5"/>
<path d="M594.433 251.983H526.174V255.38H594.433V251.983Z" fill="#C1A79F"/>
<path d="M526.483 431.86C526.483 431.86 526.483 434.331 526.483 434.022C526.483 433.713 527.564 432.787 529.262 432.169C530.961 431.552 534.513 430.78 535.44 430.471C536.366 430.162 538.837 428.772 539.764 428.772C540.69 428.772 547.64 429.699 547.949 436.029C548.258 442.36 547.177 452.241 547.177 452.241C547.177 452.241 548.258 453.013 548.412 452.241C548.721 451.469 547.485 433.559 549.03 432.478C550.574 431.552 559.222 426.765 562.774 426.92C566.326 426.92 572.503 428 573.276 428.927C574.048 429.699 574.202 440.198 574.511 443.286C574.82 446.374 573.584 452.396 573.584 452.396H574.82C574.82 452.396 575.129 438.5 574.82 436.801C574.82 435.103 573.584 429.081 575.283 428.772C576.982 428.464 593.043 426.765 594.433 428C595.668 429.081 593.815 426.148 593.815 426.148C591.344 426.611 583.314 427.692 575.746 427.692C568.797 427.692 563.237 401.289 566.017 398.047C567.562 396.194 568.797 393.106 570.032 391.716C571.113 390.481 572.195 390.018 572.658 389.863L570.341 390.326C570.341 390.326 565.708 397.583 562.311 401.135C558.913 404.531 534.204 407.774 532.351 404.84C528.954 399.436 526.483 392.334 526.483 392.334C526.483 392.334 526.174 394.186 526.174 394.804C526.174 395.422 531.116 403.759 532.814 406.23C534.513 408.7 538.992 425.067 538.065 428C537.138 431.088 526.483 432.015 526.483 432.015V431.86ZM538.837 423.986C537.911 420.744 534.513 407.465 534.976 406.693C535.44 405.921 545.941 405.767 547.331 405.612C548.721 405.612 561.539 402.215 563.392 402.524C565.245 402.833 564.318 405.612 565.091 408.391C565.4 409.781 568.951 421.516 570.65 424.912C572.349 428.464 564.936 425.993 562.002 426.302C559.068 426.765 551.501 430.78 550.111 431.397C548.721 431.86 547.485 431.706 545.169 430.162C542.852 428.618 540.073 427.383 539.146 424.14L538.837 423.986Z" fill="#C1A79F"/>
<path d="M604.78 388.783H611.575C612.965 388.783 614.2 390.018 614.2 391.408V393.106C614.2 394.496 612.965 395.731 611.575 395.731H604.78C603.39 395.731 602.155 394.496 602.155 393.106V391.408C602.155 390.018 603.39 388.783 604.78 388.783Z" fill="#D3BCB6"/>
<path d="M789.635 390.481H796.43C797.82 390.481 799.055 391.716 799.055 393.106V394.804C799.055 396.194 797.82 397.429 796.43 397.429H789.635C788.245 397.429 787.01 396.194 787.01 394.804V393.106C787.01 391.716 788.245 390.481 789.635 390.481Z" fill="#D3BCB6"/>
<path d="M641.072 403.605H636.13C634.68 403.605 633.504 404.78 633.504 406.23V406.847C633.504 408.297 634.68 409.472 636.13 409.472H641.072C642.521 409.472 643.697 408.297 643.697 406.847V406.23C643.697 404.78 642.521 403.605 641.072 403.605Z" fill="#D3BCB6"/>
<path d="M813.726 422.288H818.668C820.058 422.288 821.293 423.523 821.293 424.912V425.53C821.293 426.92 820.058 428.155 818.668 428.155H813.726C812.336 428.155 811.101 426.92 811.101 425.53V424.912C811.101 423.523 812.336 422.288 813.726 422.288Z" fill="#D3BCB6"/>
<path d="M654.198 385.849H661.148C662.537 385.849 663.773 387.084 663.773 388.473V390.172C663.773 391.561 662.537 392.797 661.148 392.797H654.198C652.808 392.797 651.573 391.561 651.573 390.172V388.473C651.573 387.084 652.808 385.849 654.198 385.849Z" fill="#D3BCB6"/>
<path d="M837.2 398.973H844.149C845.539 398.973 846.774 400.208 846.774 401.598V403.296C846.774 404.686 845.539 405.921 844.149 405.921H837.2C835.81 405.921 834.574 404.686 834.574 403.296V401.598C834.574 400.208 835.81 398.973 837.2 398.973Z" fill="#D3BCB6"/>
<path d="M617.134 421.67H612.347C610.897 421.67 609.722 422.845 609.722 424.295V424.758C609.722 426.208 610.897 427.383 612.347 427.383H617.134C618.584 427.383 619.76 426.208 619.76 424.758V424.295C619.76 422.845 618.584 421.67 617.134 421.67Z" fill="#D3BCB6"/>
<path d="M667.942 420.28H672.73C674.12 420.28 675.355 421.516 675.355 422.905V423.523C675.355 424.912 674.12 426.148 672.73 426.148H667.942C666.552 426.148 665.317 424.912 665.317 423.523V422.905C665.317 421.516 666.552 420.28 667.942 420.28Z" fill="#D3BCB6"/>
<path d="M554.59 277.459H546.868C546.405 277.459 545.941 276.996 545.941 276.533V271.129C545.941 268.504 548.103 266.342 550.729 266.342C553.354 266.342 555.516 268.504 555.516 271.129V276.533C555.516 276.996 555.053 277.459 554.59 277.459Z" fill="#453A3E"/>
<path d="M577.445 277.459H569.723C569.26 277.459 568.797 276.996 568.797 276.533V271.129C568.797 268.504 570.959 266.342 573.584 266.342C576.21 266.342 578.372 268.504 578.372 271.129V276.533C578.372 276.996 577.908 277.459 577.445 277.459Z" fill="#453A3E"/>
<path d="M923.527 234.072H855.423V452.396H923.527V234.072Z" fill="#E0CCC5"/>
<path d="M930.786 226.044H848.628V251.983H930.786V226.044Z" fill="#E0CCC5"/>
<path d="M860.21 215.699H848.628V230.521H860.21V215.699Z" fill="#E0CCC5"/>
<path d="M877.815 215.699H866.233V230.521H877.815V215.699Z" fill="#E0CCC5"/>
<path d="M930.631 215.699H919.049V230.521H930.631V215.699Z" fill="#E0CCC5"/>
<path d="M913.026 215.699H901.443V230.521H913.026V215.699Z" fill="#E0CCC5"/>
<path d="M895.421 215.699H883.838V230.521H895.421V215.699Z" fill="#E0CCC5"/>
<path d="M923.373 251.983H855.423V255.38H923.373V251.983Z" fill="#C1A79F"/>
<path d="M859.902 452.242H923.064V389.709H859.902V452.242Z" fill="#D3BCB6"/>
<path opacity="0.3" d="M914.261 452.396H923.682V251.52H914.261V452.396Z" fill="#C1A79F"/>
<path d="M911.79 427.692C910.864 424.604 915.342 408.392 917.041 405.921C918.74 403.451 923.682 394.959 923.682 394.496C923.682 394.032 923.373 392.025 923.373 392.025C923.373 392.025 920.902 399.128 917.504 404.532C915.651 407.465 890.942 404.223 887.545 400.826C884.147 397.429 879.514 390.018 879.514 390.018L877.198 389.555C877.815 389.555 878.742 390.172 879.823 391.408C881.058 392.952 882.294 395.885 883.838 397.738C886.618 400.98 881.058 427.537 874.109 427.383C866.542 427.383 858.357 426.148 856.04 425.839C856.04 425.839 854.187 428.773 855.423 427.692C856.658 426.611 872.874 428.155 874.572 428.464C876.271 428.773 875.19 434.794 875.036 436.493C875.036 438.191 875.036 452.087 875.036 452.087H876.271C876.271 452.087 875.036 446.22 875.344 442.978C875.653 439.89 875.653 429.39 876.58 428.618C877.352 427.846 883.684 426.765 887.081 426.611C890.633 426.611 899.281 431.243 900.826 432.169C902.37 433.096 901.135 451.161 901.443 451.933C901.752 452.705 902.679 451.933 902.679 451.933C902.679 451.933 901.443 442.051 901.907 435.721C902.216 429.39 909.011 428.464 910.092 428.464C911.173 428.464 913.644 429.853 914.416 430.162C915.342 430.471 918.894 431.243 920.593 431.861C922.292 432.478 923.373 433.559 923.373 433.713C923.373 434.022 923.373 431.552 923.373 431.552C923.373 431.552 912.871 430.625 911.79 427.537V427.692ZM904.841 429.853C902.524 431.397 901.135 431.706 899.899 431.089C898.509 430.625 890.788 426.457 888.008 425.993C885.074 425.53 877.661 428.001 879.36 424.604C881.058 421.053 884.456 409.472 884.919 408.083C885.691 405.304 884.61 402.524 886.618 402.216C888.471 401.907 901.289 405.149 902.679 405.304C904.069 405.304 914.416 405.612 915.033 406.384C915.497 407.156 912.099 420.435 911.173 423.677C910.092 426.92 907.466 428.155 905.15 429.699L904.841 429.853Z" fill="#C1A79F"/>
<path d="M898.046 277.151H905.768C906.231 277.151 906.694 276.687 906.694 276.224V270.82C906.694 268.195 904.532 266.034 901.907 266.034C899.282 266.034 897.12 268.195 897.12 270.82V276.224C897.12 276.687 897.583 277.151 898.046 277.151Z" fill="#453A3E"/>
<path d="M877.507 277.151H885.228C885.692 277.151 886.155 276.687 886.155 276.224V270.82C886.155 268.195 883.993 266.034 881.367 266.034C878.742 266.034 876.58 268.195 876.58 270.82V276.224C876.58 276.687 877.043 277.151 877.507 277.151Z" fill="#453A3E"/>
<path d="M855.423 452.705H864.844V251.829H855.423V452.705Z" fill="#A5877F"/>
<path d="M524.785 296.605H400.312V341.073H524.785V296.605Z" fill="#D3BCB6"/>
<path d="M410.041 296.914L398.613 452.705H366.646L400.467 296.914H410.041Z" fill="#C1A79F"/>
<path d="M515.364 297.068L514.128 452.859L525.248 453.477L525.711 297.068H515.364Z" fill="#A5877F"/>
<path d="M524.63 436.647H355.99V454.094H524.63V436.647Z" fill="#A5877F"/>
<path d="M1093.4 435.721H924.763V453.168H1093.4V435.721Z" fill="#A5877F"/>
<path d="M879.669 158.107L874.572 162.585H818.205L812.491 157.644L846.002 114.875L879.669 158.107Z" fill="#453A3E"/>
<path d="M823.456 201.802L818.051 207.361L629.335 207.052L623.93 202.574L629.026 185.745H817.278L823.456 201.802Z" fill="#453A3E"/>
<path d="M819.44 207.207H629.026V213.846H819.44V207.207Z" fill="#C1A79F"/>
<path d="M607.096 179.569H606.788V208.905H607.096V179.569Z" fill="#C1A79F"/>
<path d="M591.345 178.643H590.881V207.979H591.345V178.643Z" fill="#C1A79F"/>
<path d="M842.141 207.67H835.655V183.738C835.655 181.885 837.045 180.495 838.898 180.495C840.751 180.495 842.141 181.885 842.141 183.738V207.67Z" fill="#453A3E"/>
<path d="M858.048 207.515H851.562V183.583C851.562 181.73 852.951 180.341 854.805 180.341C856.658 180.341 858.048 181.73 858.048 183.583V207.515Z" fill="#453A3E"/>
<path d="M854.959 179.569H854.65V208.905H854.959V179.569Z" fill="#C1A79F"/>
<path d="M839.207 178.643H838.744V207.979H839.207V178.643Z" fill="#C1A79F"/>
<path d="M523.858 165.518H509.341V184.201H523.858V165.518Z" fill="#C1A79F"/>
<path d="M522.622 164.283H510.577V186.826H522.622V164.283Z" fill="#453A3E"/>
<path d="M516.754 166.136H516.291V184.973H516.754V166.136Z" fill="#E0CCC5"/>
<path d="M522.468 172.003H510.422V172.621H522.468V172.003Z" fill="#E0CCC5"/>
<path d="M522.468 178.643H510.422V179.26H522.468V178.643Z" fill="#E0CCC5"/>
<path d="M524.63 163.048H507.951V166.753H524.63V163.048Z" fill="#C1A79F"/>
<path d="M525.093 183.738H508.26V187.598H525.093V183.738Z" fill="#C1A79F"/>
<path d="M481.389 165.827H466.873V184.509H481.389V165.827Z" fill="#C1A79F"/>
<path d="M480.154 164.746H468.108V187.289H480.154V164.746Z" fill="#453A3E"/>
<path d="M474.44 166.444H473.977V185.281H474.44V166.444Z" fill="#E0CCC5"/>
<path d="M479.999 172.312H467.954V172.929H479.999V172.312Z" fill="#E0CCC5"/>
<path d="M479.999 178.951H467.954V179.568H479.999V178.951Z" fill="#E0CCC5"/>
<path d="M482.316 163.511H465.637V167.216H482.316V163.511Z" fill="#C1A79F"/>
<path d="M482.779 184.201H465.946V188.061H482.779V184.201Z" fill="#C1A79F"/>
<path d="M558.296 149.152H445.715V154.71H558.296V149.152Z" fill="#C1A79F"/>
<path d="M422.087 431.397H408.651C408.651 429.39 409.424 427.537 410.659 426.302C411.431 425.53 412.358 424.913 413.284 424.604C413.284 424.604 413.439 424.604 413.593 424.604C414.211 424.449 414.674 424.295 415.292 424.295C415.91 424.295 416.527 424.295 417.145 424.604C417.145 424.604 417.3 424.604 417.454 424.604C418.535 424.913 419.307 425.53 420.079 426.302C421.315 427.537 422.087 429.39 422.087 431.397Z" fill="#453A3E"/>
<path d="M413.593 424.295V431.243H413.284V424.295C413.284 424.295 413.438 424.295 413.593 424.295Z" fill="#E0CCC5"/>
<path d="M417.453 424.449V431.243H417.145V424.295C417.145 424.295 417.299 424.295 417.453 424.295V424.449Z" fill="#E0CCC5"/>
<path d="M461.004 430.78H447.568C447.568 428.772 448.341 426.92 449.576 425.684C450.348 424.912 451.275 424.295 452.201 423.986C452.201 423.986 452.356 423.986 452.51 423.986C453.128 423.832 453.591 423.677 454.209 423.677C454.827 423.677 455.444 423.677 456.062 423.986C456.062 423.986 456.217 423.986 456.371 423.986C457.452 424.295 458.224 424.912 458.996 425.684C460.232 426.92 461.004 428.772 461.004 430.78Z" fill="#453A3E"/>
<path d="M452.51 423.832V430.78H452.201V423.832C452.201 423.832 452.356 423.832 452.51 423.832Z" fill="#E0CCC5"/>
<path d="M456.371 423.986V430.78H456.062V423.832C456.062 423.832 456.217 423.832 456.371 423.832V423.986Z" fill="#E0CCC5"/>
<path d="M501.156 431.397H487.721C487.721 429.39 488.493 427.537 489.728 426.302C490.5 425.53 491.427 424.913 492.354 424.604C492.354 424.604 492.508 424.604 492.663 424.604C493.28 424.449 493.744 424.295 494.361 424.295C494.979 424.295 495.597 424.295 496.214 424.604C496.214 424.604 496.369 424.604 496.523 424.604C497.604 424.913 498.377 425.53 499.149 426.302C500.384 427.537 501.156 429.39 501.156 431.397Z" fill="#453A3E"/>
<path d="M492.662 424.295V431.243H492.354V424.295C492.354 424.295 492.508 424.295 492.662 424.295Z" fill="#E0CCC5"/>
<path d="M496.678 424.449V431.243H496.369V424.295C496.369 424.295 496.523 424.295 496.678 424.295V424.449Z" fill="#E0CCC5"/>
<path d="M451.275 144.674H443.553V137.417L445.406 135.873H449.422L451.275 137.417V144.674Z" fill="#E0CCC5"/>
<path d="M464.556 144.674H456.834V137.417L458.842 135.873H462.703L464.556 137.417V144.674Z" fill="#E0CCC5"/>
<path d="M478.147 144.674H470.425V137.417L472.278 135.873H476.294L478.147 137.417V144.674Z" fill="#E0CCC5"/>
<path d="M491.427 144.674H483.706V137.417L485.713 135.873H489.574L491.427 137.417V144.674Z" fill="#E0CCC5"/>
<path d="M533.433 144.674H525.711V137.417L527.719 135.873H531.579L533.433 137.417V144.674Z" fill="#E0CCC5"/>
<path d="M546.869 144.674H539.147V137.417L541 135.873H544.861L546.869 137.417V144.674Z" fill="#E0CCC5"/>
<path d="M560.304 144.674H552.582V137.417L554.59 135.873H558.45L560.304 137.417V144.674Z" fill="#E0CCC5"/>
<path d="M505.171 144.674H497.45V137.417L499.303 135.873H503.318L505.171 137.417V144.674Z" fill="#E0CCC5"/>
<path d="M518.453 144.674H510.731V137.417L512.585 135.873H516.6L518.453 137.417V144.674Z" fill="#E0CCC5"/>
<path d="M560.766 144.057H443.089V151.005H560.766V144.057Z" fill="#E0CCC5"/>
<path d="M517.371 339.683H403.555V346.014H517.371V339.683Z" fill="#E0CCC5"/>
<path d="M515.21 346.014H406.181V347.866H515.21V346.014Z" fill="#C1A79F"/>
<path d="M542.39 76.583H463.475V82.9135H542.39V76.583Z" fill="#E0CCC5"/>
<path d="M536.83 82.9136H469.343V84.7664H536.83V82.9136Z" fill="#C1A79F"/>
<path d="M469.344 96.1921L463.475 82.9136H469.344V96.1921Z" fill="#D3BCB6"/>
<path d="M536.521 96.1921L542.389 82.9136H536.521V96.1921Z" fill="#C1A79F"/>
<path d="M503.472 201.494H486.485V226.97H503.472V201.494Z" fill="#E0CCC5"/>
<path d="M503.319 226.97C503.319 226.97 499.458 238.704 496.06 239.476C496.06 239.476 495.906 239.476 495.751 239.476C492.199 239.476 486.331 226.97 486.331 226.97H503.319Z" fill="#C1A79F"/>
<path d="M463.629 245.035H457.606C456.497 245.035 455.598 245.933 455.598 247.042V248.123C455.598 249.231 456.497 250.13 457.606 250.13H463.629C464.737 250.13 465.636 249.231 465.636 248.123V247.042C465.636 245.933 464.737 245.035 463.629 245.035Z" fill="#E0CCC5"/>
<path d="M473.204 229.904H467.181C466.072 229.904 465.173 230.802 465.173 231.911V232.992C465.173 234.1 466.072 234.999 467.181 234.999H473.204C474.313 234.999 475.211 234.1 475.211 232.992V231.911C475.211 230.802 474.313 229.904 473.204 229.904Z" fill="#E0CCC5"/>
<path d="M509.65 246.424H503.627C502.518 246.424 501.62 247.323 501.62 248.432V249.512C501.62 250.621 502.518 251.52 503.627 251.52H509.65C510.759 251.52 511.658 250.621 511.658 249.512V248.432C511.658 247.323 510.759 246.424 509.65 246.424Z" fill="#E0CCC5"/>
<path d="M594.433 251.983H585.013V452.859H594.433V251.983Z" fill="#A5877F"/>
<path d="M498.994 217.397H491.89V210.449C491.89 208.442 495.442 205.354 495.442 205.354C495.442 205.354 498.84 208.442 498.84 210.449V217.397H498.994Z" fill="#453A3E"/>
<path d="M495.751 205.199H495.133V217.551H495.751V205.199Z" fill="#E0CCC5"/>
<path d="M500.384 216.316H490.809V218.324H500.384V216.316Z" fill="#C1A79F"/>
<path d="M503.318 204.119L486.485 203.964V202.575H503.318V204.119Z" fill="#D3BCB6"/>
<path d="M503.473 201.648V227.124C503.473 227.124 499.612 238.859 496.214 239.631C498.531 238.55 501.774 228.051 502.083 227.124V201.802H503.627L503.473 201.648Z" fill="#A5877F"/>
<path d="M483.087 202.575L494.67 186.054L506.252 202.575L503.472 204.427L503.318 202.729L486.485 202.575V204.736L483.087 202.575Z" fill="#453A3E"/>
<path d="M488.029 227.125H486.485V202.575H488.029V227.125Z" fill="#C1A79F"/>
<path d="M540.381 56.0478H466.1V38.6005L475.983 32.27L502.546 0.463379L529.108 32.4244L540.381 38.6005V56.0478Z" fill="#453A3E"/>
<path d="M426.411 310.81H421.623H416.218V302.318H426.411V310.81Z" fill="#E0CCC5"/>
<path d="M424.712 316.06H418.072V308.648C418.072 306.795 419.616 305.251 421.469 305.251C423.322 305.251 424.867 306.795 424.867 308.648V316.06H424.712Z" fill="#453A3E"/>
<path d="M445.869 310.81H440.928H435.522V302.164H445.869V310.81Z" fill="#E0CCC5"/>
<path d="M444.017 316.06H437.376V308.648C437.376 306.795 438.92 305.251 440.773 305.251C442.627 305.251 444.171 306.795 444.171 308.648V316.06H444.017Z" fill="#453A3E"/>
<path d="M465.637 310.81H460.849H455.444V302.318H465.637V310.81Z" fill="#E0CCC5"/>
<path d="M463.938 316.06H457.298V308.648C457.298 306.795 458.842 305.251 460.695 305.251C462.549 305.251 464.093 306.795 464.093 308.648V316.06H463.938Z" fill="#453A3E"/>
<path d="M486.948 310.81H482.006H476.601V302.318H486.948V310.81Z" fill="#E0CCC5"/>
<path d="M485.094 316.06H478.454V308.648C478.454 306.795 479.998 305.251 481.851 305.251C483.704 305.251 485.249 306.795 485.249 308.648V316.06H485.094Z" fill="#453A3E"/>
<path d="M507.951 310.81H503.164H497.759V302.318H507.951V310.81Z" fill="#E0CCC5"/>
<path d="M506.252 316.06H499.611V308.648C499.611 306.795 501.156 305.251 503.009 305.251C504.862 305.251 506.406 306.795 506.406 308.648V316.06H506.252Z" fill="#453A3E"/>
<path d="M536.52 56.0479H469.497V76.5832H536.52V56.0479Z" fill="#D3BCB6"/>
<path d="M508.26 72.7231H497.45V76.892H508.26V72.7231Z" fill="#453A3E"/>
<path d="M485.095 72.7231H474.285V76.892H485.095V72.7231Z" fill="#453A3E"/>
<path d="M531.888 72.4141H521.078V76.5829H531.888V72.4141Z" fill="#453A3E"/>
<path d="M515.209 109.316H489.728V113.022H515.209V109.316Z" fill="#D3BCB6"/>
<path d="M525.866 299.848H399.849L400.467 296.914H525.866V299.848Z" fill="#A5877F"/>
<path d="M500.847 127.844L496.523 131.704L491.89 127.844V112.713H500.847V127.844Z" fill="#2059EA"/>
<path d="M502.855 112.713H489.728V113.33H502.855V112.713Z" fill="#453A3E"/>
<path d="M513.511 127.844L509.032 131.704L504.554 127.844L504.399 112.713H513.511V127.844Z" fill="#2059EA"/>
<path d="M515.364 112.713H502.237V113.33H515.364V112.713Z" fill="#453A3E"/>
<path d="M513.974 103.14H503.936V103.603H513.974V103.14Z" fill="#E0CCC5"/>
<path d="M501.928 103.14H491.89V103.603H501.928V103.14Z" fill="#E0CCC5"/>
<path d="M511.039 94.4937H510.73V109.316H511.039V94.4937Z" fill="#E0CCC5"/>
<path d="M507.334 94.4937H507.025V109.316H507.334V94.4937Z" fill="#E0CCC5"/>
<path d="M495.288 94.4937H494.979V109.316H495.288V94.4937Z" fill="#E0CCC5"/>
<path d="M498.685 94.4937H498.376V109.316H498.685V94.4937Z" fill="#E0CCC5"/>
<path d="M560.921 185.59H558.604V191.303H560.921V185.59Z" fill="#E0CCC5"/>
<path d="M1022.98 169.07V208.442C1022.98 210.449 1022.83 212.456 1022.52 214.464C1021.59 220.64 1019.12 226.507 1015.26 231.448C1014.8 232.065 1014.33 232.683 1013.87 233.146C1013.41 233.764 1012.94 234.227 1012.48 234.845C1011.55 235.925 1010.47 237.006 1009.39 238.087C1007.23 240.403 1004.91 242.565 1002.29 244.572V237.161L1002.13 214.309L1001.82 168.761H1022.98V169.07Z" fill="#D3BCB6"/>
<path d="M1022.98 162.894H1018.04V173.084H1022.98V162.894Z" fill="#E0CCC5"/>
<path d="M1014.64 162.894H1009.7V173.084H1014.64V162.894Z" fill="#E0CCC5"/>
<path d="M1006.77 162.894H1001.82V173.084H1006.77V162.894Z" fill="#E0CCC5"/>
<path d="M1014.95 189.451H1010.16V181.113C1010.16 179.723 1011.25 178.797 1012.48 178.797C1013.87 178.797 1014.8 179.878 1014.8 181.113V189.451H1014.95Z" fill="#453A3E"/>
<path d="M1014.95 206.589H1010.16V198.252C1010.16 196.862 1011.25 195.936 1012.48 195.936C1013.87 195.936 1014.8 197.016 1014.8 198.252V206.589H1014.95Z" fill="#453A3E"/>
<path d="M1022.52 214.464C1021.59 220.64 1018.97 226.507 1015.11 231.448C1014.64 232.066 1014.18 232.683 1013.56 233.301C1013.1 233.918 1012.63 234.382 1012.02 234.999C1011.09 236.08 1010.01 237.161 1008.93 238.242C1006.77 240.403 1004.45 242.565 1001.82 244.727V237.315L1001.52 214.464H1022.21H1022.52Z" fill="#C1A79F"/>
<path d="M1024.83 169.688H1001.98V173.856H1024.83V169.688Z" fill="#E0CCC5"/>
<path d="M1022.98 174.319H1001.82V175.709H1022.98V174.319Z" fill="#C1A79F"/>
<path d="M1001.82 215.39H1003.37V174.474H1001.82V215.39Z" fill="#C1A79F"/>
<path d="M566.944 185.59H564.628V191.303H566.944V185.59Z" fill="#E0CCC5"/>
<path d="M572.813 185.59H570.496V191.303H572.813V185.59Z" fill="#E0CCC5"/>
<path d="M601.537 81.9873H600.302V121.668H601.537V81.9873Z" fill="#453A3E"/>
<path d="M630.724 102.407C630.724 102.407 627.018 105.959 621.458 105.495C616.98 105.032 613.119 102.87 608.641 102.87C604.162 102.87 600.919 104.723 600.919 104.723V82.5972C600.919 82.5972 604.008 80.4356 607.714 79.818C612.656 79.046 616.208 82.2884 620.995 82.7516C626.863 83.3692 630.415 80.4356 630.415 80.4356V102.253L630.724 102.407Z" fill="#2059EA"/>
<path d="M846.312 81.9873H845.076V121.668H846.312V81.9873Z" fill="#453A3E"/>
<path d="M511.194 429.699C511.812 429.081 526.792 431.397 526.329 431.86C526.02 432.478 519.842 443.44 518.144 443.595C517.063 443.595 492.354 445.139 492.354 445.139C492.354 445.139 510.422 430.316 511.04 429.699H511.194Z" fill="#39847D"/>
<path d="M542.853 451.006L529.108 430.934L516.599 432.324C516.599 432.324 507.179 442.669 505.48 443.441C503.782 444.213 481.08 442.36 479.845 442.977C478.455 443.749 472.741 462.123 472.741 462.123C472.741 462.123 488.493 460.116 498.068 460.425C507.642 460.733 543.007 451.006 543.007 451.006H542.853Z" fill="#226669"/>
<path d="M472.586 461.969C472.586 461.969 544.86 462.277 544.551 461.197C544.242 460.116 542.852 450.852 542.852 450.852C542.852 450.852 525.71 446.837 525.402 447.918C525.093 448.999 507.951 457.182 506.561 457.8C505.171 458.572 486.639 452.705 485.713 453.013C484.632 453.322 472.74 461.814 472.74 461.814L472.586 461.969Z" fill="#533C46"/>
<path d="M324.332 440.353L334.061 429.854L349.659 427.692L358.77 409.473L368.5 389.864H380.082L365.565 382.916L345.644 399.282L342.092 416.266L328.502 427.692L324.332 440.353Z" fill="#226669"/>
<path d="M1118.27 440.353V454.094L1064.99 459.807L1047.38 455.021L985.918 453.786L987.771 453.168L988.698 452.859L1020.67 441.434L1074.41 415.494L1108.07 430.471L1118.27 440.353Z" fill="#533C46"/>
<path d="M1108.23 430.934L1092.48 432.941L1079.19 442.823L1058.81 428.309L1012.63 447.455L985.608 453.631L1014.02 432.632L1034.56 405.303L1062.21 387.084L1085.99 401.752L1092.78 419.045L1108.23 430.934Z" fill="#226669"/>
<path d="M1014.02 432.632L1044.91 411.943L1085.99 401.752L1058.66 368.401L1062.21 387.084L1034.56 405.303L1014.02 432.632Z" fill="#39847D"/>
<path d="M875.41 102.407C875.41 102.407 871.703 105.959 866.144 105.495C861.665 105.032 857.805 102.87 853.326 102.87C848.848 102.87 845.604 104.723 845.604 104.723V82.5972C845.604 82.5972 848.693 80.4356 852.4 79.818C857.341 79.046 860.893 82.2884 865.681 82.7516C871.549 83.3692 875.101 80.4356 875.101 80.4356V102.253L875.41 102.407Z" fill="#2059EA"/>
<g clip-path="url(#clip0_287_2)">
<path d="M615.69 99.4118C619.292 99.4118 622.212 96.4973 622.212 92.902C622.212 89.3067 619.292 86.3921 615.69 86.3921C612.273 86.3921 609.47 89.0155 609.192 92.3547H617.811V93.4492H609.192C609.47 96.7884 612.273 99.4118 615.69 99.4118Z" fill="white"/>
</g>
<g clip-path="url(#clip1_287_2)">
<path d="M860.376 99.4118C863.978 99.4118 866.897 96.4973 866.897 92.902C866.897 89.3067 863.978 86.3921 860.376 86.3921C856.959 86.3921 854.156 89.0155 853.877 92.3547H862.497V93.4492H853.877C854.156 96.7884 856.959 99.4118 860.376 99.4118Z" fill="white"/>
</g>
<defs>
<clipPath id="clip0_287_2">
<rect width="13.134" height="13.134" fill="white" transform="translate(609.192 86.3921)"/>
</clipPath>
<clipPath id="clip1_287_2">
<rect width="13.134" height="13.134" fill="white" transform="translate(853.877 86.3921)"/>
</clipPath>
</defs>
</svg>
