<?xml version="1.0" encoding="utf-8"?>
<!-- Generator: Adobe Illustrator 27.6.1, SVG Export Plug-In . SVG Version: 6.00 Build 0)  -->
<svg version="1.1" id="Layer_1" xmlns="http://www.w3.org/2000/svg" xmlns:xlink="http://www.w3.org/1999/xlink" x="0px" y="0px"
	 viewBox="0 0 892 94" style="enable-background:new 0 0 892 94;" xml:space="preserve">
<style type="text/css">
	.st0{fill:#231F20;}
</style>
<g>
	<polygon class="st0" points="63.7,0.1 53.1,0.1 53.1,0.1 42.5,0.1 42.5,0.1 31.9,0.1 31.8,0.1 21.2,0.1 21.2,0.1 10.6,0.1 
		10.6,18.1 0,18.1 0,36.1 0,39.3 0,54.1 0,57.3 0,75.3 10.6,75.3 10.6,93.3 21.2,93.3 21.2,93.3 31.8,93.3 31.9,93.3 42.5,93.3 
		42.5,93.3 53.1,93.3 53.1,93.3 63.7,93.3 63.7,93.3 74.3,93.3 74.3,72.1 63.7,72.1 63.7,72.1 53.1,72.1 53.1,72.1 42.5,72.1 
		42.5,72.1 31.9,72.1 31.8,72.1 21.2,72.1 21.2,57.3 21.2,54.1 21.2,39.3 21.2,36.1 21.2,21.3 31.8,21.3 31.9,21.3 42.5,21.3 
		42.5,21.3 53.1,21.3 53.1,21.3 63.7,21.3 63.7,21.3 74.3,21.3 74.3,0.1 63.7,0.1 	"/>
	<path class="st0" d="M233.6,0.1h-10.6h0h-10.6h0h-10.6h0h-10.6h0h-10.6v18h-10.6v18v3.2v14.8v3.2v14.8v3.2v18h10.6h0h10.6v-18v-3.2
		V57.3h10.6h0h10.6h0h10.6v14.8v3.2v18h10.6h0h10.6v-18v-3.2V57.3v-3.2V39.3v-3.2v-18h-10.6V0.1z M212.3,36.1L212.3,36.1h-10.6h0
		h-10.6V21.3h10.6h0h10.6h0h10.6v14.8H212.3z"/>
	<polygon class="st0" points="339.7,0.1 329.1,0.1 329.1,18.1 329.1,21.3 329.1,36.1 329.1,39.3 329.1,54.1 329.1,57.3 329.1,72.1 
		318.5,72.1 318.5,54.1 307.9,54.1 307.9,36.1 297.3,36.1 297.3,18.1 286.6,18.1 286.6,0.1 276,0.1 276,0.1 265.4,0.1 265.4,0.1 
		254.8,0.1 254.8,18.1 254.8,21.3 254.8,36.1 254.8,39.3 254.8,54.1 254.8,57.3 254.8,72.1 254.8,75.3 254.8,93.3 265.4,93.3 
		265.4,93.3 276,93.3 276,75.3 276,72.1 276,57.3 276,54.1 276,39.3 286.6,39.3 286.6,57.3 297.2,57.3 297.2,75.3 307.9,75.3 
		307.9,93.3 318.5,93.3 318.5,93.3 329.1,93.3 329.1,93.3 339.7,93.3 339.7,93.3 350.3,93.3 350.3,75.3 350.3,72.1 350.3,57.3 
		350.3,54.1 350.3,39.3 350.3,36.1 350.3,21.3 350.3,18.1 350.3,0.1 339.7,0.1 	"/>
	<polygon class="st0" points="424.6,0.1 414,0.1 414,18.1 403.4,18.1 403.4,36.1 392.8,36.1 392.8,36.1 382.2,36.1 382.2,21.3 
		382.2,18.1 382.2,0.1 371.6,0.1 371.6,0.1 360.9,0.1 360.9,18.1 360.9,21.3 360.9,36.1 360.9,39.3 360.9,54.1 360.9,57.3 
		360.9,72.1 360.9,75.3 360.9,93.3 371.6,93.3 371.6,93.3 382.2,93.3 382.2,75.3 382.2,72.1 382.2,57.3 392.8,57.3 392.8,57.3 
		403.4,57.3 403.4,75.3 414,75.3 414,93.3 424.6,93.3 424.6,93.3 435.3,93.3 435.3,72.1 424.6,72.1 424.6,54.1 414,54.1 414,39.3 
		424.6,39.3 424.6,21.3 435.3,21.3 435.3,0.1 424.6,0.1 	"/>
	<polygon class="st0" points="509.6,0.1 499,0.1 499,0.1 488.3,0.1 488.3,0.1 477.7,0.1 477.7,0.1 467.1,0.1 467.1,0.1 456.5,0.1 
		456.5,0.1 445.9,0.1 445.9,18.1 445.9,21.3 445.9,36.1 445.9,39.3 445.9,54.1 445.9,57.3 445.9,72.1 445.9,75.3 445.9,93.3 
		456.5,93.3 456.5,93.3 467.1,93.3 467.1,93.3 477.7,93.3 477.7,93.3 488.3,93.3 488.3,93.3 499,93.3 499,93.3 509.6,93.3 
		509.6,93.3 520.2,93.3 520.2,72.1 509.6,72.1 509.6,72.1 499,72.1 499,72.1 488.3,72.1 488.3,72.1 477.7,72.1 477.7,72.1 
		467.1,72.1 467.1,57.3 477.7,57.3 477.7,57.3 488.3,57.3 488.3,57.3 499,57.3 499,36.1 488.3,36.1 488.3,36.1 477.7,36.1 
		477.7,36.1 467.1,36.1 467.1,21.3 477.7,21.3 477.7,21.3 488.3,21.3 488.3,21.3 499,21.3 499,21.3 509.6,21.3 509.6,21.3 
		520.2,21.3 520.2,0.1 509.6,0.1 	"/>
	<path class="st0" d="M594.5,0.1h-10.6h0h-10.6h0h-10.6h0H552h0h-10.6h0h-10.6v18v3.2v14.8v3.2v14.8v3.2v14.8v3.2v18h10.6h0H552v-18
		v-3.2V57.3h10.6h0h10.6h0h10.6v14.8v3.2v18h10.6h0h10.6v-18v-3.2v-18h-10.6V39.3h10.6V18.1h-10.6V0.1z M573.3,36.1L573.3,36.1
		h-10.6h0H552V21.3h10.6h0h10.6h0h10.6v14.8H573.3z"/>
	<polygon class="st0" points="679.4,0.1 668.8,0.1 668.8,0.1 658.2,0.1 658.2,0.1 647.6,0.1 647.6,0.1 637,0.1 637,0.1 626.3,0.1 
		626.3,18.1 615.7,18.1 615.7,36.1 615.7,39.3 615.7,54.1 615.7,57.3 615.7,75.3 626.3,75.3 626.3,93.3 637,93.3 637,93.3 
		647.6,93.3 647.6,93.3 658.2,93.3 658.2,93.3 668.8,93.3 668.8,93.3 679.4,93.3 679.4,93.3 690,93.3 690,72.1 679.4,72.1 
		679.4,72.1 668.8,72.1 668.8,72.1 658.2,72.1 658.2,72.1 647.6,72.1 647.6,72.1 637,72.1 637,57.3 637,54.1 637,39.3 637,36.1 
		637,21.3 647.6,21.3 647.6,21.3 658.2,21.3 658.2,21.3 668.8,21.3 668.8,21.3 679.4,21.3 679.4,21.3 690,21.3 690,0.1 679.4,0.1 	
		"/>
	<path class="st0" d="M775,0.1h-10.6h0h-10.6h0h-10.6h0h-10.6h0h-10.6h0h-10.6v18h-10.6v18v3.2v14.8v3.2v18h10.6v18h10.6h0h10.6h0
		h10.6h0h10.6h0h10.6h0H775v-18h10.6v-18v-3.2V39.3v-3.2v-18H775V0.1z M753.7,72.1L753.7,72.1h-10.6h0h-10.6h0h-10.6V57.3v-3.2V39.3
		v-3.2V21.3h10.6h0h10.6h0h10.6h0h10.6v14.8v3.2v14.8v3.2v14.8H753.7z"/>
	<polygon class="st0" points="881.1,0.1 881.1,0.1 870.5,0.1 870.5,18.1 870.5,21.3 870.5,36.1 870.5,39.3 870.5,54.1 870.5,57.3 
		870.5,72.1 859.9,72.1 859.9,54.1 849.3,54.1 849.3,36.1 838.7,36.1 838.7,18.1 828.1,18.1 828.1,0.1 817.4,0.1 817.4,0.1 
		806.8,0.1 806.8,0.1 796.2,0.1 796.2,18.1 796.2,21.3 796.2,36.1 796.2,39.3 796.2,54.1 796.2,57.3 796.2,72.1 796.2,75.3 
		796.2,93.3 806.8,93.3 806.8,93.3 817.4,93.3 817.4,75.3 817.4,72.1 817.4,57.3 817.4,54.1 817.4,39.3 828.1,39.3 828.1,57.3 
		838.7,57.3 838.7,75.3 849.3,75.3 849.3,93.3 859.9,93.3 859.9,93.3 870.5,93.3 870.5,93.3 881.1,93.3 881.1,93.3 891.8,93.3 
		891.8,75.3 891.8,72.1 891.8,57.3 891.8,54.1 891.8,39.3 891.8,36.1 891.8,21.3 891.8,18.1 891.8,0.1 	"/>
	<polygon class="st0" points="148.6,72.1 138,72.1 138,72.1 127.4,72.1 127.4,72.1 116.8,72.1 116.8,72.1 106.2,72.1 106.2,57.3 
		106.2,54.1 106.2,39.3 106.2,36.1 106.2,21.3 106.2,18.1 106.2,0.1 95.6,0.1 95.5,0.1 84.9,0.1 84.9,18.1 84.9,21.3 84.9,36.1 
		84.9,39.3 84.9,54.1 84.9,57.3 84.9,72.1 84.9,75.3 84.9,93.3 95.5,93.3 95.6,93.3 106.2,93.3 106.2,93.3 116.8,93.3 116.8,93.3 
		127.4,93.3 127.4,93.3 138,93.3 138,93.3 148.6,93.3 148.6,93.3 159.2,93.3 159.2,72.1 148.6,72.1 	"/>
</g>
</svg>
