<svg width="535" height="512" viewBox="0 0 535 512" fill="none" xmlns="http://www.w3.org/2000/svg">
<path d="M534.9 494.4C534.9 492.3 533.2 490.6 531 490.6H518.6L518.4 252.2C518.3 112.8 405.2 -0.0999336 265.8 6.63792e-05C126.4 0.100066 13.4999 113.2 13.5999 252.6L13.7999 491H4.7999C2.5999 491 0.899902 492.7 0.899902 494.8V508.2C0.899902 510.3 2.6999 512 4.7999 512H89.1999C89.1999 512 88.7999 314.6 88.7999 252.5C88.7999 190.4 112.6 81.0001 265.8 81.0001C419 81.0001 444 221.8 444 252.1C444 282.4 443.4 511.7 443.4 511.7H531C533.2 511.7 534.9 509.9 534.9 507.8V494.4Z" fill="#004CBE"/>
</svg>
